<?xml version="1.0" encoding="UTF-8" standalone="no"?><!-- Generator: Gravit.io --><svg xmlns="http://www.w3.org/2000/svg" xmlns:xlink="http://www.w3.org/1999/xlink" style="isolation:isolate" viewBox="0 0 450 450" width="450pt" height="450pt"><defs><clipPath id="_clipPath_OCxr0E5s6LrlIJW6iSmFnbEllnZiSP4b"><rect width="450" height="450"/></clipPath></defs><g clip-path="url(#_clipPath_OCxr0E5s6LrlIJW6iSmFnbEllnZiSP4b)"><path d=" M 63.924 143 L 142 143 L 85.559 197 L 31 143 L 63.924 143 Z " fill="rgb(240,172,46)" vector-effect="non-scaling-stroke" stroke-width="8" stroke="rgb(240,172,46)" stroke-linejoin="miter" stroke-linecap="square" stroke-miterlimit="3"/><path d=" M 384.186 143 L 304 143 L 361.966 197 L 418 143 L 384.186 143 Z " fill="rgb(240,172,46)" vector-effect="non-scaling-stroke" stroke-width="8" stroke="rgb(240,172,46)" stroke-linejoin="miter" stroke-linecap="square" stroke-miterlimit="3"/><ellipse vector-effect="non-scaling-stroke" cx="225" cy="231.75" rx="143.5" ry="101.25000000000001" fill="rgb(255,228,179)"/><ellipse vector-effect="non-scaling-stroke" cx="225" cy="290.50000000000006" rx="55" ry="42.5" fill="rgb(255,184,184)"/><polygon points="251.635,290.356,245,256,264.978,261.879" fill="rgb(232,232,232)" vector-effect="non-scaling-stroke" stroke-width="4" stroke="rgb(116,116,116)" stroke-linejoin="miter" stroke-linecap="square" stroke-miterlimit="4"/><polygon points="196.095,290.507,202.441,254.522,183.139,260.643" fill="rgb(232,232,232)" vector-effect="non-scaling-stroke" stroke-width="4" stroke="rgb(116,116,116)" stroke-linejoin="miter" stroke-linecap="square" stroke-miterlimit="4"/><polygon points="244.555,308.577,239.366,327,254.989,323.847" fill="rgb(232,232,232)" vector-effect="non-scaling-stroke" stroke-width="4" stroke="rgb(116,116,116)" stroke-linejoin="miter" stroke-linecap="square" stroke-miterlimit="3"/><polygon points="201.332,308.5,206.521,326.923,190.897,323.77" fill="rgb(232,232,232)" vector-effect="non-scaling-stroke" stroke-width="4" stroke="rgb(116,116,116)" stroke-linejoin="miter" stroke-linecap="square" stroke-miterlimit="3"/><ellipse vector-effect="non-scaling-stroke" cx="178.5" cy="208" rx="11.5" ry="11" fill="rgb(0,0,0)"/><ellipse vector-effect="non-scaling-stroke" cx="262.5" cy="208" rx="11.5" ry="11" fill="rgb(0,0,0)"/><path d=" M 119.844 176.888 C 125.976 163.506 141.654 154 160 154 C 183.732 154 203 169.907 203 189.5 C 203 209.093 183.732 225 160 225 C 136.268 225 117 209.093 117 189.5 C 117 186.093 117.583 182.797 118.693 179.685" fill="none" vector-effect="non-scaling-stroke" stroke-width="8" stroke="rgb(240,172,46)" stroke-linejoin="miter" stroke-linecap="square" stroke-miterlimit="3"/><clipPath id="_clipPath_mMa1yCYRXUqyaIwQL1V6ko0Q1hN4fBG9"><path d=" M 119.844 176.888 C 125.976 163.506 141.654 154 160 154 C 183.732 154 203 169.907 203 189.5 C 203 209.093 183.732 225 160 225 C 136.268 225 117 209.093 117 189.5 C 117 186.093 117.583 182.797 118.693 179.685" fill="none" vector-effect="non-scaling-stroke" stroke-width="8" stroke="rgb(240,172,46)" stroke-linejoin="miter" stroke-linecap="square" stroke-miterlimit="3"/></clipPath><g clip-path="url(#_clipPath_mMa1yCYRXUqyaIwQL1V6ko0Q1hN4fBG9)"><line x1="201" y1="197" x2="117" y2="187" vector-effect="non-scaling-stroke" stroke-width="8" stroke="rgb(240,172,46)" stroke-linejoin="miter" stroke-linecap="square" stroke-miterlimit="3"/></g><path d=" M 119.844 176.888 C 125.976 163.506 141.654 154 160 154 C 183.732 154 203 169.907 203 189.5 C 203 209.093 183.732 225 160 225 C 136.268 225 117 209.093 117 189.5 C 117 186.093 117.583 182.797 118.693 179.685" fill="transparent" vector-effect="non-scaling-stroke" stroke-width="8" stroke="rgb(240,172,46)" stroke-linejoin="miter" stroke-linecap="square" stroke-miterlimit="3"/><path d=" M 320.156 176.888 C 314.024 163.506 298.346 154 280 154 C 256.268 154 237 169.907 237 189.5 C 237 209.093 256.268 225 280 225 C 303.732 225 323 209.093 323 189.5 C 323 186.093 322.417 182.797 321.307 179.685" fill="none" vector-effect="non-scaling-stroke" stroke-width="8" stroke="rgb(240,172,46)" stroke-linejoin="miter" stroke-linecap="square" stroke-miterlimit="3"/><clipPath id="_clipPath_3imKah8w0sEIPUuVBGRIH6suWSMe2wQ4"><path d=" M 320.156 176.888 C 314.024 163.506 298.346 154 280 154 C 256.268 154 237 169.907 237 189.5 C 237 209.093 256.268 225 280 225 C 303.732 225 323 209.093 323 189.5 C 323 186.093 322.417 182.797 321.307 179.685" fill="none" vector-effect="non-scaling-stroke" stroke-width="8" stroke="rgb(240,172,46)" stroke-linejoin="miter" stroke-linecap="square" stroke-miterlimit="3"/></clipPath><g clip-path="url(#_clipPath_3imKah8w0sEIPUuVBGRIH6suWSMe2wQ4)"><line x1="239" y1="197" x2="323" y2="187" vector-effect="non-scaling-stroke" stroke-width="8" stroke="rgb(240,172,46)" stroke-linejoin="miter" stroke-linecap="square" stroke-miterlimit="3"/></g><path d=" M 320.156 176.888 C 314.024 163.506 298.346 154 280 154 C 256.268 154 237 169.907 237 189.5 C 237 209.093 256.268 225 280 225 C 303.732 225 323 209.093 323 189.5 C 323 186.093 322.417 182.797 321.307 179.685" fill="transparent" vector-effect="non-scaling-stroke" stroke-width="8" stroke="rgb(240,172,46)" stroke-linejoin="miter" stroke-linecap="square" stroke-miterlimit="3"/><g><line x1="149" y1="262" x2="90" y2="248" vector-effect="non-scaling-stroke" stroke-width="8" stroke="rgb(240,172,46)" stroke-linejoin="miter" stroke-linecap="square" stroke-miterlimit="3"/><line x1="149" y1="284" x2="126" y2="302" vector-effect="non-scaling-stroke" stroke-width="8" stroke="rgb(240,172,46)" stroke-linejoin="miter" stroke-linecap="square" stroke-miterlimit="3"/><line x1="137.5" y1="275" x2="99" y2="275" vector-effect="non-scaling-stroke" stroke-width="8" stroke="rgb(240,172,46)" stroke-linejoin="miter" stroke-linecap="square" stroke-miterlimit="3"/></g><g><line x1="309.5" y1="256" x2="368.5" y2="242" vector-effect="non-scaling-stroke" stroke-width="8" stroke="rgb(240,172,46)" stroke-linejoin="miter" stroke-linecap="square" stroke-miterlimit="3"/><line x1="309.5" y1="278" x2="332.5" y2="296" vector-effect="non-scaling-stroke" stroke-width="8" stroke="rgb(240,172,46)" stroke-linejoin="miter" stroke-linecap="square" stroke-miterlimit="3"/><line x1="321" y1="269" x2="359.5" y2="269" vector-effect="non-scaling-stroke" stroke-width="8" stroke="rgb(240,172,46)" stroke-linejoin="miter" stroke-linecap="square" stroke-miterlimit="3"/></g><polygon points="237,225,219.724,242,202.403,225.014" fill="rgb(234,115,115)"/><ellipse vector-effect="non-scaling-stroke" cx="225" cy="231.75" rx="143.5" ry="101.25000000000001" fill="none" stroke-width="12" stroke="rgb(240,172,46)" stroke-linejoin="miter" stroke-linecap="square" stroke-miterlimit="3"/><ellipse vector-effect="non-scaling-stroke" cx="225" cy="290.50000000000006" rx="55" ry="42.5" fill="none" stroke-width="8" stroke="rgb(240,172,46)" stroke-linejoin="miter" stroke-linecap="square" stroke-miterlimit="3"/><ellipse vector-effect="non-scaling-stroke" cx="182.25" cy="204.5" rx="3.75" ry="3.5" fill="rgb(255,255,255)"/><ellipse vector-effect="non-scaling-stroke" cx="258.73919208520533" cy="204.50000000000003" rx="3.75" ry="3.5" fill="rgb(255,255,255)"/><path d=" M 154.778 251.257 Q 169.333 263.338 196.115 253.068 L 196.115 253.068" fill="none" vector-effect="non-scaling-stroke" stroke-width="5" stroke="rgb(240,172,46)" stroke-linejoin="miter" stroke-linecap="square" stroke-miterlimit="3"/><path d=" M 256.663 256 Q 271.219 268.081 298 257.811 L 298 257.811" fill="none" vector-effect="non-scaling-stroke" stroke-width="5" stroke="rgb(240,172,46)" stroke-linejoin="miter" stroke-linecap="square" stroke-miterlimit="3"/><polygon points="86,189.5,68.607,169.766,94.393,164.57" fill="rgb(235,235,235)"/><polygon points="361.73,188.753,379.123,169.019,353.336,163.823" fill="rgb(235,235,235)"/></g></svg>